<svg width="48" height="48" viewBox="0 0 48 48" fill="none" xmlns="http://www.w3.org/2000/svg">
<path d="M29.5001 24.3802C29.5001 24.2552 29.5001 24.1302 29.5001 24.0002C29.5001 23.8702 29.5001 23.7452 29.5001 23.6152L30.4601 22.7752C30.6371 22.6192 30.7532 22.4057 30.788 22.1724C30.8228 21.9391 30.7739 21.701 30.6501 21.5002L29.4701 19.5002C29.3824 19.3483 29.2564 19.2222 29.1045 19.1344C28.9527 19.0467 28.7805 19.0004 28.6051 19.0002C28.4965 18.9994 28.3884 19.0163 28.2851 19.0502L27.0701 19.4602C26.8604 19.3208 26.6415 19.1955 26.4151 19.0852L26.1601 17.8252C26.1144 17.595 25.9892 17.3882 25.8064 17.2411C25.6235 17.0939 25.3948 17.0157 25.1601 17.0202H22.8201C22.5855 17.0157 22.3567 17.0939 22.1739 17.2411C21.9911 17.3882 21.8658 17.595 21.8201 17.8252L21.5651 19.0852C21.3371 19.1955 21.1166 19.3208 20.9051 19.4602L19.7151 19.0302C19.6108 19.003 19.5027 18.9929 19.3951 19.0002C19.2198 19.0004 19.0475 19.0467 18.8957 19.1344C18.7439 19.2222 18.6178 19.3483 18.5301 19.5002L17.3501 21.5002C17.2334 21.7007 17.1901 21.9355 17.2275 22.1645C17.2648 22.3934 17.3807 22.6023 17.5551 22.7552L18.5001 23.6202C18.5001 23.7452 18.5001 23.8702 18.5001 24.0002C18.5001 24.1302 18.5001 24.2552 18.5001 24.3852L17.5551 25.2252C17.3758 25.3792 17.2568 25.5918 17.2192 25.8252C17.1817 26.0586 17.2281 26.2977 17.3501 26.5002L18.5301 28.5002C18.6178 28.6521 18.7439 28.7782 18.8957 28.866C19.0475 28.9537 19.2198 29 19.3951 29.0002C19.5038 29.001 19.6119 28.9841 19.7151 28.9502L20.9301 28.5402C21.1399 28.6796 21.3587 28.8049 21.5851 28.9152L21.8401 30.1752C21.8858 30.4054 22.0111 30.6122 22.1939 30.7594C22.3767 30.9065 22.6055 30.9847 22.8401 30.9802H25.2001C25.4348 30.9847 25.6635 30.9065 25.8464 30.7594C26.0292 30.6122 26.1544 30.4054 26.2001 30.1752L26.4551 28.9152C26.6832 28.8049 26.9036 28.6796 27.1151 28.5402L28.3251 28.9502C28.4284 28.9841 28.5365 29.001 28.6451 29.0002C28.8205 29 28.9927 28.9537 29.1445 28.866C29.2964 28.7782 29.4224 28.6521 29.5101 28.5002L30.6501 26.5002C30.7668 26.2997 30.8102 26.0649 30.7728 25.8359C30.7354 25.607 30.6196 25.3981 30.4451 25.2452L29.5001 24.3802ZM28.6051 28.0002L26.8901 27.4202C26.4887 27.7603 26.0298 28.0261 25.5351 28.2052L25.1801 30.0002H22.8201L22.4651 28.2252C21.9743 28.041 21.518 27.7756 21.1151 27.4402L19.3951 28.0002L18.2151 26.0002L19.5751 24.8002C19.4827 24.2826 19.4827 23.7528 19.5751 23.2352L18.2151 22.0002L19.3951 20.0002L21.1101 20.5802C21.5116 20.2401 21.9704 19.9743 22.4651 19.7952L22.8201 18.0002H25.1801L25.5351 19.7752C26.0259 19.9594 26.4823 20.2248 26.8851 20.5602L28.6051 20.0002L29.7851 22.0002L28.4251 23.2002C28.5176 23.7178 28.5176 24.2476 28.4251 24.7652L29.7851 26.0002L28.6051 28.0002Z" fill="white"/>
<path d="M24 27C23.4067 27 22.8266 26.8241 22.3333 26.4944C21.8399 26.1648 21.4554 25.6962 21.2284 25.1481C21.0013 24.5999 20.9419 23.9967 21.0576 23.4147C21.1734 22.8328 21.4591 22.2982 21.8787 21.8787C22.2982 21.4591 22.8328 21.1734 23.4147 21.0576C23.9967 20.9419 24.5999 21.0013 25.1481 21.2284C25.6962 21.4554 26.1648 21.8399 26.4944 22.3333C26.8241 22.8266 27 23.4067 27 24C27.004 24.3951 26.9292 24.787 26.7798 25.1528C26.6305 25.5186 26.4096 25.8509 26.1303 26.1303C25.8509 26.4096 25.5186 26.6305 25.1528 26.7798C24.787 26.9292 24.3951 27.004 24 27ZM24 22C23.7357 21.9938 23.4728 22.0414 23.2274 22.1397C22.982 22.238 22.759 22.3851 22.5721 22.5721C22.3851 22.759 22.238 22.982 22.1397 23.2274C22.0414 23.4728 21.9938 23.7357 22 24C21.9938 24.2643 22.0414 24.5272 22.1397 24.7726C22.238 25.018 22.3851 25.241 22.5721 25.4279C22.759 25.6149 22.982 25.762 23.2274 25.8603C23.4728 25.9586 23.7357 26.0062 24 26C24.2643 26.0062 24.5272 25.9586 24.7726 25.8603C25.018 25.762 25.241 25.6149 25.4279 25.4279C25.6149 25.241 25.762 25.018 25.8603 24.7726C25.9586 24.5272 26.0062 24.2643 26 24C26.0062 23.7357 25.9586 23.4728 25.8603 23.2274C25.762 22.982 25.6149 22.759 25.4279 22.5721C25.241 22.3851 25.018 22.238 24.7726 22.1397C24.5272 22.0414 24.2643 21.9938 24 22Z" fill="white"/>
</svg>
